<svg width="24" height="24" viewBox="0 0 24 24" fill="none" xmlns="http://www.w3.org/2000/svg">
<path fill-rule="evenodd" clip-rule="evenodd" d="M8 4C7.46957 4 6.96086 4.21071 6.58579 4.58579C6.21071 4.96086 6 5.46957 6 6V18C6 18.5304 6.21071 19.0391 6.58579 19.4142C6.96086 19.7893 7.46957 20 8 20C8.53043 20 9.03914 19.7893 9.41421 19.4142C9.78929 19.0391 10 18.5304 10 18V6C10 5.46957 9.78929 4.96086 9.41421 4.58579C9.03914 4.21071 8.53043 4 8 4ZM18 6V18C18 18.5304 17.7893 19.0391 17.4142 19.4142C17.0391 19.7893 16.5304 20 16 20C15.4696 20 14.9609 19.7893 14.5858 19.4142C14.2107 19.0391 14 18.5304 14 18V6C14 5.46957 14.2107 4.96086 14.5858 4.58579C14.9609 4.21071 15.4696 4 16 4C16.5304 4 17.0391 4.21071 17.4142 4.58579C17.7893 4.96086 18 5.46957 18 6Z" fill="#22B2F8"/>
</svg>
